<?xml version="1.0" encoding="UTF-8" standalone="no"?>
<svg
   xmlns:dc="http://purl.org/dc/elements/1.1/"
   xmlns:cc="http://creativecommons.org/ns#"
   xmlns:rdf="http://www.w3.org/1999/02/22-rdf-syntax-ns#"
   xmlns:svg="http://www.w3.org/2000/svg"
   xmlns="http://www.w3.org/2000/svg"
   xmlns:sodipodi="http://sodipodi.sourceforge.net/DTD/sodipodi-0.dtd"
   xmlns:inkscape="http://www.inkscape.org/namespaces/inkscape"
   width="775"
   height="200"
   id="svg2"
   version="1.1"
   inkscape:version="0.48.4 r9939"
   sodipodi:docname="Sunrise_company_logo.svg">
  <metadata
     id="metadata3118">
    <rdf:RDF>
      <cc:Work
         rdf:about="">
        <dc:format>image/svg+xml</dc:format>
        <dc:type
           rdf:resource="http://purl.org/dc/dcmitype/StillImage" />
        <dc:title></dc:title>
      </cc:Work>
    </rdf:RDF>
  </metadata>
  <defs
     id="defs3116" />
  <sodipodi:namedview
     pagecolor="#ffffff"
     bordercolor="#666666"
     borderopacity="1"
     objecttolerance="10"
     gridtolerance="10"
     guidetolerance="10"
     inkscape:pageopacity="0"
     inkscape:pageshadow="2"
     inkscape:window-width="1280"
     inkscape:window-height="962"
     id="namedview3114"
     showgrid="false"
     inkscape:zoom="0.42967742"
     inkscape:cx="387.5"
     inkscape:cy="100"
     inkscape:window-x="-8"
     inkscape:window-y="-8"
     inkscape:window-maximized="1"
     inkscape:current-layer="layer1" />
  <g
     inkscape:label="Layer 1"
     inkscape:groupmode="layer"
     id="layer1"
     transform="translate(-47.060718,-484.04398)">
    <g
       id="g3018"
       transform="matrix(0.71057044,0,0,0.71057044,784.12278,10.504492)">
      <rect
         ry="36.397308"
         y="729.11334"
         x="-666.70068"
         height="210.11172"
         width="369.71582"
         id="rect2998-1"
         style="fill:#ffffff" />
      <rect
         ry="36.397308"
         y="686.68701"
         x="-941.46216"
         height="210.11172"
         width="917.21851"
         id="rect2998"
         style="fill:#ffffff" />
      <path
         inkscape:connector-curvature="0"
         id="path2996"
         d="m -666.05609,937.0027 c -0.72038,-1.38564 -1.2655,-8.58863 -1.41898,-18.75 l -0.24922,-16.5 -125,-0.5 -125.00001,-0.5 -4.6757,-2.16089 c -8.7807,-4.05808 -14.6788,-11.13435 -19.7007,-23.63616 -1.564,-3.89348 -1.5891,-160.54564 -0.026,-165.63195 4.3546,-14.17489 13.5961,-23.43078 26.9029,-26.94503 3.4503,-0.9112 105.15484,-1.12282 436.00004,-0.9072 398.367518,0.25964 431.830538,0.40807 435.804628,1.93308 9.75777,3.74444 18.12564,12.30542 21.84408,22.34815 1.735126,4.68625 1.868456,9.98523 2.124766,84.44576 0.2703,78.52212 0.2489,79.52184 -1.840536,85.98938 -3.39822,10.51862 -10.41065,18.66494 -19.68332,22.86605 -3.4446,1.56062 -13.95844,1.73948 -129.249618,2.19881 l -125.5,0.5 -0.5,17.5 c -0.275,9.625 -0.86406,18.0625 -1.30902,18.75 -0.64236,0.99251 -38.56156,1.25 -184.08102,1.25 l -183.272,0 -1.16976,-2.25 z m 230.61368,-10.34176 c 2.12763,-2.41855 2.26283,-3.34815 2,-13.75107 l -0.28188,-11.15717 -2.68274,-0.30993 c -3.8083,-0.43997 -4.74504,2.01821 -4.40718,11.56527 0.15798,4.46401 -0.0492,8.66082 -0.4605,9.32624 -1.11999,1.81218 -3.74859,0.36433 -4.12202,-2.27043 -0.25915,-1.82849 -0.95409,-2.31115 -3.32756,-2.31115 -2.67419,0 -3.03492,0.36485 -3.32152,3.35942 -0.77751,8.12393 10.90378,12.02779 16.6034,5.54882 z m -205.78188,-4.07491 c 0,-6.50013 1.04683,-6.29357 2.50167,0.49364 0.95573,4.45873 1.17202,4.68717 4.7163,4.98139 3.36239,0.27911 3.77201,0.0421 4.31967,-2.5 1.32249,-6.13855 2.32427,-6.99963 2.39468,-2.05836 0.0673,4.72008 0.089,4.75 3.46069,4.75 1.86616,0 3.55881,-0.5625 3.76145,-1.25 0.20264,-0.6875 0.13828,-6.65 -0.14301,-13.25 l -0.51145,-12 -4.47818,0 -4.47817,0 -1.929,7.79282 c -1.06096,4.28605 -2.22611,7.43605 -2.58924,7 -0.36313,-0.43605 -1.23212,-3.71782 -1.93109,-7.29282 -0.69897,-3.575 -1.46597,-6.69734 -1.70445,-6.93853 -0.23848,-0.24119 -2.56126,-0.46619 -5.16173,-0.5 l -4.72814,-0.0615 -0.27903,13.25 -0.27902,13.25 3.52902,0 3.52903,0 0,-5.66667 z m 34.71025,3.66667 c 0.43074,-1.64714 1.36402,-2 5.28975,-2 3.92573,0 4.85901,0.35286 5.28975,2 0.4183,1.59958 1.36401,2 4.72362,2 3.61179,0 4.09836,-0.24531 3.47118,-1.75 -0.40119,-0.9625 -2.27782,-6.025 -4.17031,-11.25 -4.5621,-12.59561 -5.65803,-14.19748 -9.44737,-13.80877 -3.37032,0.34573 -4.48287,1.94166 -7.88357,11.30877 -2.48051,6.83248 -3.85543,10.28054 -5.04112,12.64219 -1.11105,2.21301 -0.24958,2.85781 3.81811,2.85781 2.58595,0 3.5553,-0.49082 3.94996,-2 z m 4,-11 c 0.43549,-1.66533 2.28975,-2.94627 2.28975,-1.58179 0,0.23002 0.27314,1.13002 0.60699,2 0.42963,1.11961 0.0187,1.58179 -1.40638,1.58179 -1.52104,0 -1.88548,-0.48906 -1.49036,-2 z m 39.08177,11.43312 c 4.73766,-3.31839 6.61337,-12.81472 3.65943,-18.527 -2.53498,-4.90211 -6.8999,-6.89809 -15.09446,-6.90238 -5.59337,-0.003 -7.2747,0.33942 -7.75,1.57805 -0.33385,0.86998 -0.60699,6.94498 -0.60699,13.5 l 0,11.91821 8.77749,0 c 6.35026,0 9.3961,-0.43329 11.01453,-1.56688 z m -12.05843,-4.18312 c -0.21144,-0.4125 -0.3505,-3.675 -0.30902,-7.25 l 0.0754,-6.5 3.75176,-0.31047 c 3.31696,-0.27449 3.87682,0.0152 4.83083,2.5 1.39943,3.64486 0.49492,9.15448 -1.78699,10.88508 -1.94567,1.47559 -5.94104,1.88682 -6.56201,0.67539 z m 44.26641,2.75 0,-3 -6.37756,0 c -4.11529,0 -6.77263,-0.47604 -7.49132,-1.34201 -1.65907,-1.99906 -0.35962,-2.6563 5.28555,-2.6733 6.16131,-0.0186 7.86461,-0.95912 7.42082,-4.09778 -0.3131,-2.21444 -0.83011,-2.40839 -7.15508,-2.68414 -9.11549,-0.39741 -8.6485,-2.58632 0.63966,-2.99829 6.18434,-0.2743 6.70822,-0.47698 7.29709,-2.82321 0.34892,-1.39024 0.20018,-2.96193 -0.33054,-3.49265 -0.53146,-0.53146 -5.41766,-0.8355 -10.87678,-0.67678 l -9.91184,0.28816 -0.27903,13.25 -0.27902,13.25 11.02902,0 11.02903,0 0,-3 z m 28,-9.98095 0,-12.98095 -2.51299,-0.63072 c -4.72372,-1.18557 -5.48701,0.69912 -5.48701,13.5484 0,6.44099 0.3,12.01089 0.66667,12.37755 0.36666,0.36667 2.16666,0.66667 4,0.66667 l 3.33333,0 0,-12.98095 z m 15,6.48095 c 0,-3.575 0.3375,-6.49686 0.75,-6.49302 0.4125,0.004 2.3407,2.81634 4.28489,6.25 3.40485,6.01337 3.68074,6.24302 7.5,6.24302 l 3.96511,0 0,-12.39101 c 0,-10.71378 -0.23688,-12.54044 -1.75,-13.49489 -1.2776,-0.80589 -2.2224,-0.80412 -3.5,0.007 -1.35591,0.86037 -1.75,2.49233 -1.75,7.24691 0,3.37507 -0.36297,6.01459 -0.80661,5.8656 -0.44363,-0.14899 -2.48974,-3.18741 -4.5469,-6.75203 -3.0008,-5.19972 -4.2867,-6.54484 -6.50387,-6.80339 -4.80781,-0.56063 -5.33728,0.7736 -5.38485,13.56961 -0.024,6.46396 0.15969,12.09015 0.40828,12.50265 0.24859,0.4125 2.00043,0.75 3.89297,0.75 l 3.44098,0 0,-6.5 z m 67.71025,4.5 c 0.42476,-1.6243 1.36402,-2 5,-2 3.63599,0 4.57524,0.3757 5,2 0.40975,1.56687 1.36402,2 4.40638,2 2.13585,0 3.88337,-0.44527 3.88337,-0.98948 0,-0.98466 -3.14976,-9.52504 -7.38002,-20.01052 -2.08118,-5.15856 -2.43076,-5.5 -5.63111,-5.5 -3.65685,0 -4.02228,0.43965 -7.89649,9.5 -1.05831,2.475 -2.5039,6.3 -3.21243,8.5 -0.70853,2.2 -1.64637,4.4275 -2.08409,4.95 -1.9001,2.26811 -0.7093,3.55 3.29776,3.55 3.25262,0 4.20107,-0.41089 4.61663,-2 z m 2.84659,-11.25 c 0.78383,-2.55 1.27489,-3.26992 1.81893,-2.66667 0.20668,0.22917 0.687,1.42917 1.06739,2.66667 0.56764,1.84667 0.30894,2.25 -1.44316,2.25 -1.7521,0 -2.0108,-0.40333 -1.44316,-2.25 z m 27.44316,9.25 c 0,-3.91542 0.0751,-4 3.54966,-4 10.18222,0 15.18055,-9.42363 8.52726,-16.07692 -2.70244,-2.70244 -3.47989,-2.92308 -10.3,-2.92308 -4.40427,0 -7.86048,0.48356 -8.57692,1.2 -0.80325,0.80325 -1.2,5.26667 -1.2,13.5 l 0,12.3 4,0 c 4,0 4,0 4,-4 z m 0,-13.5 c 0,-2.19048 0.43333,-2.5 3.5,-2.5 3.06667,0 3.5,0.30952 3.5,2.5 0,2.19048 -0.43333,2.5 -3.5,2.5 -3.06667,0 -3.5,-0.30952 -3.5,-2.5 z m 23.5,15.5 c 0.51161,-1.61193 1.51303,-2 5.16101,-2 3.68523,0 4.62341,0.37161 5.04924,2 0.40975,1.56687 1.36402,2 4.40638,2 2.13585,0 3.88337,-0.43944 3.88337,-0.97653 0,-1.25662 -6.67513,-19.74073 -8.31442,-23.02347 -0.9156,-1.83352 -2.18286,-2.57935 -4.75353,-2.79764 -3.2807,-0.27858 -3.6198,-0.0225 -5.29634,4 -0.98518,2.3637 -2.17384,5.19764 -2.64148,6.29764 -1.81193,4.26215 -5.99423,15.37024 -5.99423,15.92056 0,0.31869 1.76968,0.57944 3.93261,0.57944 3.05436,0 4.07438,-0.44665 4.56739,-2 z m 3.67668,-10.66713 c 0.47995,-2.47478 2.48963,-2.71689 3.10238,-0.37376 0.40454,1.54697 0.0546,2.04089 -1.446,2.04089 -1.31058,0 -1.87043,-0.56348 -1.65638,-1.66713 z m 26.83874,5.41713 0.0154,-7.25 3.46374,6.11026 c 4.29049,7.56869 5.51798,8.60844 9.6901,8.20797 l 3.31534,-0.31823 0.2796,-12.10299 c 0.30711,-13.29391 -0.40714,-15.20927 -5.2211,-14.00105 -2.27441,0.57084 -2.49059,1.14187 -2.76298,7.29825 l -0.29552,6.67896 -3.93241,-6.43659 c -4.41693,-7.22966 -5.12314,-7.89962 -8.34981,-7.92127 -3.31427,-0.0222 -4.00459,2.92478 -3.62723,15.48469 0.18177,6.05 0.34826,11.1125 0.36997,11.25 0.0217,0.1375 1.61448,0.25 3.53948,0.25 l 3.5,0 0.0154,-7.25 z m 286.524428,-33.86435 c 2.59888,-0.6544 6.28371,-2.73866 8.87617,-5.02063 7.99814,-7.04025 7.66425,-3.30191 7.35648,-82.36502 l -0.27249,-70 -14.97804,-0.27804 c -8.43304,-0.15654 -15.42461,-0.72305 -16,-1.29643 -0.56272,-0.56075 -1.24664,-8.07509 -1.52196,-16.72196 l -0.5,-15.70357 -423.500008,0 c -398.71141,0 -423.68401,0.10072 -426.64391,1.7208 -4.4798,2.45203 -9.1791,7.41987 -10.8882,11.5104 -2.2039,5.27457 -2.1996,160.34869 0,165.39668 2.689,6.15849 8.049,10.83083 14.5641,12.69566 5.1842,1.48389 857.613418,1.5452 863.503308,0.0621 z M -872.3055,861.7065 c -3.0818,-1.64504 -28.9121,-29.57641 -29.4851,-31.88352 -0.2827,-1.13865 -0.3835,-19.25909 -0.2239,-40.26763 l 0.2902,-38.19735 10,-10.30265 c 5.5,-5.66646 12.3809,-12.45207 15.2909,-15.07915 l 5.2909,-4.7765 14.7091,0.2765 14.70911,0.2765 0.28375,11.35687 c 0.18782,7.5173 -0.10714,11.82786 -0.87244,12.75 -0.82344,0.99218 -3.61838,1.39313 -9.71117,1.39313 l -8.55495,0 -7.3226,7.32258 -7.3226,7.32258 0,29.45571 0,29.4557 7.2603,7.72171 7.2602,7.72172 9.13276,0 c 7.4054,0 9.24758,0.29918 9.73976,1.58179 0.33385,0.86998 0.60699,6.5091 0.60699,12.53138 0,8.98393 -0.27923,11.05675 -1.55544,11.54648 -2.75785,1.05828 -27.48037,0.88593 -29.52577,-0.20585 z m 42.95808,0.4701 c -0.96542,-0.59666 -1.51259,-15.52461 -0.92272,-25.1739 0.0252,-0.4125 4.18778,-0.75 9.25014,-0.75 l 9.20429,0 7.29571,-7.41493 c 6.29829,-6.40122 7.29571,-7.90025 7.29571,-10.96482 0,-2.48621 -0.57957,-3.86006 -1.93426,-4.58507 -1.07992,-0.57795 -8.38137,-1.03518 -16.53078,-1.03518 l -14.59652,0 0.28078,-12.25 0.28078,-12.25 27.5,-0.28065 c 15.125,-0.15436 28.5125,-0.0333 29.75,0.26905 2.24457,0.54838 2.25,0.60045 2.25,21.57708 l 0,21.02738 -10.69653,11.70357 c -5.88308,6.43696 -12.58796,13.61607 -14.89971,15.95357 l -4.20319,4.25 -11.85029,0.0833 c -6.51765,0.0458 -12.84725,0.19449 -14.06578,0.33034 -1.21852,0.13586 -2.75196,-0.0845 -3.40763,-0.48977 z m 131.79495,0.0761 -11.82817,-0.5 -15.43039,-15.84347 -15.43039,-15.84346 0.25856,-54.15654 0.25857,-54.15653 11.5,-0.29021 c 6.325,-0.15962 12.5125,-0.0385 13.75,0.26905 l 2.25,0.55926 0,49.55519 0,49.55518 5.75,6.15539 c 8.2362,8.81688 7.87833,8.62896 16.5,8.66434 l 7.75,0.0318 0,12.88337 c 0,11.46354 -0.19286,12.92377 -1.75,13.25 -0.9625,0.20165 -7.07268,0.14163 -13.57818,-0.13337 z m 27.74859,-0.29969 c -1.10834,-0.62399 -1.42041,-3.5351 -1.42041,-13.25 l 0,-12.45031 7.81989,0 c 8.72183,0 8.61368,0.0627 18.3958,-10.66807 l 4.71118,-5.16807 0.0542,-48.70599 c 0.0298,-26.78829 0.24447,-49.01381 0.47699,-49.39004 0.23252,-0.37622 6.18707,-0.65789 13.23234,-0.62594 l 12.8096,0.0581 0.66239,5 c 0.86441,6.52488 1.01505,81.16452 0.18898,93.63784 l -0.63828,9.63785 -15.20154,15.86215 -15.20154,15.86216 -12.23459,0.5 c -6.72903,0.275 -12.87378,0.14014 -13.65501,-0.29969 z m 87.07289,-0.95031 c -0.29964,-1.2375 -0.42071,-33.075 -0.26905,-70.75 l 0.27575,-68.5 11.75634,-0.28179 c 6.46599,-0.15498 12.59065,0.16472 13.61036,0.71045 1.61017,0.86174 26.27375,30.80341 48.91371,59.38142 4.00422,5.05445 8.72922,10.95465 10.5,13.11154 1.77077,2.15688 3.76778,4.63188 4.43779,5.5 1.81245,2.34834 1.76745,35.43043 -0.0502,36.93899 -1.89991,1.57678 -2.96489,0.54075 -14.76207,-14.36061 -5.66055,-7.15 -10.76755,-13.48896 -11.3489,-14.08657 -0.58138,-0.59761 -8.48203,-10.3841 -17.55703,-21.74774 -9.075,-11.36364 -17.0625,-20.66219 -17.75,-20.66343 -0.98227,-0.002 -1.25,10.04684 -1.25,46.91595 0,25.80502 -0.27314,47.63002 -0.60699,48.5 -0.50824,1.32446 -2.62001,1.58179 -12.98095,1.58179 -12.00416,0 -12.39024,-0.0672 -12.91876,-2.25 z m 99.62226,0.88924 c -0.82071,-0.9889 -1.05913,-20.32339 -0.87245,-70.75 l 0.25689,-69.38924 13,0 13,0 0.27575,68.5 c 0.15166,37.675 0.0306,69.5125 -0.26905,70.75 -0.52694,2.17621 -0.93369,2.25 -12.40331,2.25 -8.78165,0 -12.15152,-0.35307 -12.98783,-1.36076 z m 193.75869,0.28306 c -0.52767,-0.32613 -0.81267,-6.4226 -0.65448,-14 l 0.28023,-13.4223 48,0 48,0 0.27962,13.33587 c 0.25337,12.08366 0.11252,13.37858 -1.5,13.79062 -2.66532,0.68106 -93.32243,0.96513 -94.40537,0.29581 z m 117.55372,-1.00104 c -1.19718,-1.32359 -1.4255,-9.56614 -1.41266,-51 0.008,-27.18169 0.38734,-50.00781 0.84205,-50.7247 0.60083,-0.94729 4.12273,-1.32102 12.88956,-1.36781 6.63455,-0.0354 12.55563,0.2402 13.15795,0.61246 0.67902,0.41966 1.09513,4.59749 1.09513,10.99536 0,7.34917 0.3815,10.63516 1.32571,11.41878 0.83704,0.69468 8.48577,1.20058 20.75,1.37245 l 19.42429,0.2722 0.29087,11 c 0.45309,17.13443 2.63616,15.5 -20.70293,15.5 -17.19996,0 -19.95563,0.21283 -20.48095,1.58179 -0.33385,0.86998 -0.61388,12.23248 -0.6223,25.25 -0.008,13.01751 -0.39765,24.27143 -0.86494,25.0087 -1.34541,2.1227 -23.78106,2.19323 -25.69178,0.0808 z m 83.267908,1.44128 c -0.38273,-0.38273 -0.69587,-22.04037 -0.69587,-48.12808 0,-40.31621 -0.22728,-47.90495 -1.51492,-50.58333 -0.83321,-1.73312 -4.22381,-5.85113 -7.53469,-9.15113 l -6.019758,-6 -26.19032,-0.29863 c -29.25287,-0.33355 -29.74032,-0.44819 -29.74032,-6.99453 0,-3.71341 3.88555,-8.71686 12.73541,-16.39948 l 4.25367,-3.69263 24.10244,-0.078 24.102448,-0.078 3.65302,3.77995 c 2.00916,2.07898 9.16939,9.52385 15.91162,16.54417 l 12.2586,12.76421 -0.2586,54.2265 -0.2586,54.2265 -12.05413,0.27921 c -6.62977,0.15356 -12.36727,-0.0339 -12.75,-0.41667 z m -337.000008,-1 c -0.38273,-0.38273 -0.69587,-32.13432 -0.69587,-70.55908 l 0,-69.86321 12.75,0.27987 12.75,0.27988 0.27265,17.64635 c 0.22953,14.85526 0.53006,17.86046 1.90005,19 1.18444,0.98521 6.6327,1.48974 20.01665,1.85365 l 18.38924,0.5 0.18651,12.5 0.1865,12.5 -19.14514,0.5 c -10.52982,0.275 -19.51893,0.87449 -19.9758,1.3322 -0.45686,0.45772 -1.05566,17.33272 -1.33066,37.5 l -0.5,36.6678 -12.05413,0.27921 c -6.62977,0.15356 -12.36727,-0.0339 -12.75,-0.41667 z m 36.55413,-37.02482 c -0.90136,-0.36371 -1.25,-3.81159 -1.25,-12.36204 0,-8.38797 0.36576,-12.09437 1.25,-12.66666 0.6875,-0.44496 7.63562,-0.80902 15.44028,-0.80902 l 14.19027,0 3.68176,-3.5 c 2.02496,-1.925 5.42684,-5.67791 7.55972,-8.3398 l 3.87797,-4.8398 0,-9.49262 0,-9.49262 -7.78058,-7.91758 -7.78059,-7.91758 -13.96941,-0.0153 c -7.68318,-0.008 -14.54686,-0.38172 -15.25263,-0.82954 -0.95422,-0.60548 -1.2106,-3.87036 -1,-12.73469 l 0.28321,-11.92046 20.70791,-0.27016 20.70791,-0.27016 10.85757,11.27016 c 5.97167,6.19859 13.00046,13.60409 15.61954,16.45667 l 4.76197,5.1865 -0.10901,18.28718 c -0.0843,14.15155 -0.43707,18.78787 -1.55966,20.50117 -0.79787,1.2177 -8.03836,8.99204 -16.08998,17.27632 l -14.63932,15.06232 -19.12847,-0.079 c -10.52065,-0.0434 -19.69096,-0.30592 -20.37846,-0.58333 z m 99.20845,-2.58772 c -0.26333,-0.6875 -0.36171,-23.975 -0.21861,-51.75 l 0.26016,-50.5 11,-0.29087 c 6.05,-0.15998 12.0125,-0.0389 13.25,0.26905 l 2.25,0.55992 0,49.89917 c 0,27.44453 -0.27314,50.61096 -0.60699,51.48094 -0.50843,1.32494 -2.62445,1.58179 -13.03138,1.58179 -9.0175,0 -12.55569,-0.34276 -12.90318,-1.25 z m -506.79178,-45.41667 c -0.36667,-0.36666 -0.66667,-3.726 -0.66667,-7.4652 0,-7.40623 -0.89747,-8.97511 -10.36436,-18.11813 l -3.88283,-3.75 -8.81739,0 c -5.94593,0 -9.06741,-0.40455 -9.58515,-1.24226 -0.42226,-0.68325 -0.69514,-6.42075 -0.60639,-12.75 l 0.16137,-11.50774 14.75906,-0.27794 14.75905,-0.27795 15.28832,15.37082 15.28832,15.37082 0,12.65712 0,12.65713 -12.83333,0 c -7.05834,0 -13.13334,-0.3 -13.5,-0.66667 z m 758.994848,-56.43967 c 7.23339,-6.66896 6.76153,-16.87855 -1.06324,-23.00543 -4.99498,-3.91113 -13.54483,-3.02112 -17.81358,1.85434 -2.58345,2.95063 -4.12059,8.65337 -3.3868,12.56485 0.74787,3.98649 4.75549,9.37196 8.02055,10.77809 3.73067,1.60665 11.40384,0.42583 14.24307,-2.19185 z m -10.65406,-1.88905 c -0.89267,-0.55171 -0.93128,-1.27842 -0.14588,-2.74595 0.58743,-1.09763 0.82896,-2.2348 0.53672,-2.52704 -0.29225,-0.29224 -0.0706,-0.81612 0.49259,-1.16418 0.82575,-0.51034 4.10912,4.09717 4.10912,5.76627 0,0.88221 -3.82004,1.39554 -4.99255,0.6709 z m -5.97227,-3.93887 c -1.50535,-2.81278 -1.26946,-9.62642 0.3807,-10.99592 1.19411,-0.99103 1.46821,-0.0701 1.75,5.8798 0.33918,7.16178 -0.26259,8.60672 -2.1307,5.11612 z m 13.25823,-1.32113 c -0.67252,-1.476 -0.75699,-2.98109 -0.21533,-3.8367 0.49021,-0.77435 0.89129,-2.30791 0.89129,-3.40791 0,-3.66119 -1.56048,-4.82295 -6.38034,-4.75009 -2.52749,0.0382 -4.34244,-0.33989 -4.03322,-0.84022 0.30922,-0.50033 2.29566,-0.90969 4.41431,-0.90969 3.07382,0 4.37515,0.62162 6.44099,3.07673 2.85506,3.39304 3.42494,8.39764 1.28891,11.31884 -1.21624,1.66331 -1.37127,1.62138 -2.40661,-0.65096 z m -6.62674,-6.41128 c -1.26779,-1.26779 -0.65891,-2.33333 1.33333,-2.33333 1.11111,0 2,0.66667 2,1.5 0,1.52241 -2.1154,2.05126 -3.33333,0.83333 z"
         style="fill:#ff0000" />
    </g>
  </g>
</svg>
